<?xml version="1.0" standalone="no"?>
<!DOCTYPE svg PUBLIC "-//W3C//DTD SVG 20010904//EN"
 "http://www.w3.org/TR/2001/REC-SVG-20010904/DTD/svg10.dtd">
<svg version="1.0" xmlns="http://www.w3.org/2000/svg"
 width="1320.000000pt" height="1320.000000pt" viewBox="0 0 1320.000000 1320.000000"
 preserveAspectRatio="xMidYMid meet">
<metadata>
Created by potrace 1.14, written by Peter Selinger 2001-2017
</metadata>
<g transform="translate(0.000000,1320.000000) scale(0.100000,-0.100000)"
fill="#000000" stroke="none">
<path d="M2511 12955 c1 -28 6 -55 10 -60 4 -6 11 -26 14 -44 3 -19 9 -41 14
-50 7 -14 29 -112 36 -161 1 -8 5 -22 8 -30 4 -8 13 -37 22 -65 39 -126 50
-155 56 -155 4 0 5 -9 2 -20 -3 -12 0 -20 8 -20 7 0 9 -3 6 -6 -3 -4 0 -16 8
-28 8 -11 15 -28 15 -37 0 -8 15 -47 34 -85 18 -38 37 -80 41 -94 4 -14 19
-42 32 -63 13 -21 28 -49 33 -62 5 -14 14 -25 20 -25 5 0 10 -9 10 -19 0 -11
5 -23 10 -26 10 -6 53 -84 53 -95 -1 -8 98 -192 120 -225 12 -16 36 -47 54
-68 18 -20 33 -43 33 -50 0 -11 68 -92 158 -186 17 -19 32 -38 32 -43 0 -4 6
-8 13 -8 12 0 70 -59 69 -70 0 -3 7 -9 17 -15 25 -14 71 -52 71 -58 0 -3 33
-36 72 -74 40 -37 93 -88 118 -112 25 -24 70 -62 100 -84 30 -23 61 -47 68
-54 7 -7 20 -13 28 -13 8 0 14 -6 14 -14 0 -7 14 -24 32 -37 30 -23 52 -41
127 -104 20 -17 56 -41 81 -53 49 -25 129 -81 160 -112 11 -11 28 -20 38 -20
11 0 27 -9 37 -20 10 -11 23 -20 30 -20 7 0 20 -9 31 -21 10 -12 36 -28 57
-36 20 -8 37 -19 37 -24 0 -8 17 -19 85 -54 17 -9 44 -24 60 -35 17 -11 37
-22 45 -26 8 -3 24 -11 35 -17 66 -37 190 -95 196 -91 4 2 10 -3 13 -12 4 -9
9 -14 13 -11 3 4 12 2 19 -4 7 -6 61 -35 121 -66 59 -30 147 -77 194 -104 48
-27 91 -49 98 -49 6 0 11 -3 11 -8 0 -4 16 -16 35 -26 19 -10 43 -27 53 -36
10 -10 33 -25 51 -34 18 -10 41 -25 51 -34 36 -33 49 -42 60 -42 6 0 16 -11
22 -25 6 -14 17 -25 25 -25 7 0 18 -9 25 -21 7 -12 34 -35 59 -53 25 -17 70
-51 100 -76 91 -77 337 -329 341 -351 2 -6 12 -22 23 -35 42 -49 98 -111 141
-159 25 -27 64 -74 85 -102 22 -29 45 -53 51 -53 6 0 8 -3 5 -7 -8 -7 35 -85
67 -123 27 -32 66 -87 66 -95 0 -3 12 -19 28 -36 15 -17 26 -34 25 -37 -1 -4
7 -16 17 -27 10 -11 22 -32 25 -48 4 -15 12 -31 19 -35 11 -6 49 -60 52 -72 7
-34 18 -60 25 -60 5 0 9 -6 9 -12 0 -7 11 -35 24 -63 30 -63 40 -88 37 -99 -1
-4 2 -13 7 -20 11 -13 26 -67 23 -80 -1 -5 5 -23 13 -40 14 -30 26 -105 32
-196 1 -25 3 -47 4 -50 6 -16 -3 -135 -15 -193 -6 -34 -10 -38 -29 -32 -44 14
-103 26 -156 31 -30 4 -63 10 -72 15 -9 5 -34 9 -56 9 -21 0 -42 3 -46 7 -7 7
-27 11 -81 16 -17 2 -35 6 -42 10 -6 4 -24 8 -40 8 -145 1 -542 1 -558 -1 -11
-1 -40 -1 -65 0 -44 2 -106 -6 -121 -16 -4 -2 -11 1 -14 7 -4 5 -14 8 -24 4
-9 -3 -68 -8 -131 -11 -63 -2 -131 -7 -150 -11 -19 -3 -64 -7 -100 -9 -125 -5
-346 -30 -362 -40 -40 -25 -102 -4 -164 53 -13 12 -24 19 -24 15 0 -4 -7 1
-14 11 -8 10 -20 19 -28 21 -27 4 -75 39 -97 72 -13 19 -26 34 -30 34 -3 0
-40 32 -81 70 -41 38 -78 70 -81 70 -4 0 -24 16 -45 35 -22 19 -42 35 -46 35
-4 0 -13 6 -20 13 -7 7 -29 24 -48 37 -19 14 -57 46 -85 72 -27 26 -56 48 -62
48 -7 0 -13 5 -13 11 0 7 -13 26 -29 43 -54 57 -81 87 -81 90 0 2 -74 78 -165
169 -91 90 -165 168 -165 172 0 3 -13 18 -30 32 -16 13 -30 28 -30 32 0 5 -16
25 -35 45 -19 21 -33 42 -30 47 4 5 2 9 -4 9 -6 0 -20 19 -32 43 -21 40 -47
77 -86 122 -10 11 -31 40 -47 65 -16 25 -36 54 -46 65 -10 11 -21 34 -25 52
-3 18 -14 42 -23 55 -10 13 -28 43 -41 68 -13 25 -30 52 -37 61 -8 8 -14 21
-14 27 0 6 -9 17 -20 25 -11 8 -17 17 -14 20 6 5 -50 103 -66 117 -12 10 -55
85 -57 99 -1 8 -6 17 -10 20 -5 3 -15 22 -23 41 -7 19 -18 40 -24 45 -13 12
-33 43 -43 65 -3 8 -21 38 -38 65 -17 28 -30 55 -28 62 4 12 -32 71 -52 85 -5
4 -7 8 -2 8 4 0 0 11 -9 25 -9 14 -13 25 -10 25 3 0 -4 17 -17 38 -13 20 -27
47 -31 59 -4 11 -13 27 -21 33 -8 7 -15 24 -15 38 0 14 -7 33 -15 42 -16 18
-68 130 -60 130 3 0 0 10 -7 23 -7 12 -13 24 -13 27 -17 78 -104 327 -128 363
-8 12 -13 31 -11 42 2 11 -4 30 -12 43 -8 12 -11 22 -8 22 4 0 -1 9 -11 20
-10 11 -15 28 -12 40 3 11 -3 30 -13 43 -10 12 -20 37 -23 54 -3 16 -10 40
-16 52 -7 11 -14 38 -16 58 -7 54 -32 164 -39 171 -4 3 -12 0 -19 -7 -13 -13
-15 -216 -2 -281 3 -19 8 -89 10 -155 6 -174 14 -316 20 -345 6 -30 16 -135
16 -167 -1 -13 3 -23 8 -23 5 0 9 -10 9 -22 1 -13 4 -43 7 -68 4 -25 8 -59 10
-76 1 -17 6 -51 10 -75 4 -24 9 -60 11 -79 3 -36 7 -53 16 -80 3 -8 12 -42 19
-75 15 -68 14 -65 22 -85 10 -26 18 -73 23 -134 3 -32 9 -67 15 -78 5 -10 7
-23 4 -29 -4 -5 -3 -15 2 -22 5 -7 11 -32 12 -56 2 -24 7 -54 11 -67 5 -12 9
-39 8 -61 0 -21 5 -51 11 -67 7 -16 9 -31 6 -34 -2 -3 0 -11 6 -18 6 -7 12
-34 14 -59 2 -25 6 -54 10 -64 11 -35 27 -121 27 -151 1 -8 5 -21 11 -27 5 -7
7 -13 3 -13 -3 0 0 -15 7 -32 13 -31 23 -78 48 -205 6 -32 14 -65 17 -73 3 -8
6 -24 7 -35 1 -11 5 -30 9 -42 12 -37 18 -67 19 -98 1 -16 7 -39 13 -50 7 -11
15 -37 18 -59 4 -21 8 -42 11 -46 2 -4 7 -38 11 -76 5 -66 33 -189 56 -247 6
-15 12 -39 14 -55 1 -15 5 -40 9 -57 3 -16 8 -41 11 -55 3 -14 7 -41 10 -60 8
-59 9 -65 17 -77 7 -11 12 -36 19 -103 2 -14 7 -28 12 -31 5 -4 10 -18 11 -32
2 -13 8 -33 14 -44 5 -11 8 -23 6 -25 -3 -3 2 -25 11 -49 21 -58 26 -81 39
-174 1 -11 3 -20 4 -20 2 0 4 -7 6 -15 2 -8 10 -35 18 -60 15 -45 32 -144 25
-146 -1 -1 5 -11 15 -22 10 -11 20 -41 24 -68 3 -27 11 -65 19 -86 7 -20 10
-38 7 -41 -2 -3 1 -16 8 -29 7 -12 14 -25 15 -28 0 -3 3 -12 6 -20 3 -8 13
-37 23 -65 9 -27 21 -59 26 -70 4 -11 18 -45 29 -76 11 -30 36 -81 55 -113 19
-32 35 -61 35 -63 0 -10 110 -228 135 -268 14 -22 30 -51 37 -65 7 -14 21 -38
32 -55 12 -16 19 -30 18 -30 -5 0 17 -58 28 -75 5 -8 17 -28 26 -45 9 -16 36
-57 59 -90 23 -33 64 -91 90 -130 27 -38 51 -72 55 -75 3 -3 17 -21 30 -40 13
-19 29 -40 35 -46 5 -6 28 -32 50 -58 22 -27 58 -69 80 -96 22 -26 56 -67 75
-91 40 -50 157 -166 282 -281 l87 -81 -20 -28 c-11 -16 -18 -29 -15 -29 3 0
-1 -18 -9 -40 -8 -22 -12 -47 -9 -55 3 -8 2 -20 -2 -27 -5 -7 -9 -22 -10 -33
-1 -18 -11 -67 -22 -105 -7 -26 -12 -254 -6 -270 6 -15 13 -75 14 -117 0 -12
4 -24 9 -28 5 -3 7 -14 4 -24 -3 -10 0 -22 6 -25 6 -4 11 -26 11 -49 0 -23 11
-64 23 -92 13 -27 27 -62 31 -78 3 -15 11 -27 17 -27 6 0 8 -4 4 -9 -5 -9 9
-38 90 -188 16 -29 32 -53 36 -53 4 0 28 -28 52 -62 25 -35 61 -76 81 -93 20
-16 36 -35 36 -41 0 -7 10 -19 23 -27 13 -8 59 -50 103 -92 43 -43 95 -88 116
-101 20 -13 39 -28 43 -34 3 -5 15 -10 26 -10 14 0 18 -4 12 -12 -4 -7 -6 -43
-5 -81 2 -37 0 -73 -4 -79 -4 -6 -8 -26 -10 -45 -2 -18 -10 -46 -18 -61 -15
-25 -37 -81 -38 -92 0 -3 -4 -11 -10 -18 -15 -17 -46 -71 -64 -111 -8 -18 -23
-45 -33 -60 -10 -14 -31 -46 -47 -71 -34 -52 -41 -60 -94 -119 -111 -121 -106
-108 -79 -201 17 -61 16 -57 18 -84 0 -14 8 -31 15 -39 8 -8 17 -26 18 -40 2
-15 7 -29 11 -33 4 -4 7 -17 7 -28 0 -23 35 -95 53 -111 11 -9 73 -121 76
-137 0 -5 1 -9 2 -10 8 -29 7 -48 -3 -42 -7 4 -8 3 -4 -5 10 -15 29 -3 22 15
-3 8 -1 14 4 14 4 0 11 -14 15 -30 4 -17 11 -30 16 -30 15 0 10 -22 -8 -44
-17 -20 -17 -20 1 -6 16 13 20 12 37 -10 10 -14 30 -37 43 -51 20 -20 23 -28
13 -39 -9 -10 -9 -11 1 -6 7 5 20 -2 32 -16 23 -27 25 -39 6 -32 -8 3 -17 1
-20 -4 -3 -5 5 -8 18 -7 15 2 32 -6 45 -21 11 -13 16 -25 11 -25 -6 -1 -15 -2
-21 -3 -6 0 -17 -10 -24 -20 -13 -17 -17 -17 -32 -5 -9 8 -14 9 -10 3 8 -14
-30 -32 -63 -29 -14 1 -29 0 -35 -3 -13 -8 -32 -12 -72 -16 -17 -2 -37 -7 -45
-12 -7 -5 -19 -9 -27 -11 -7 -1 -18 -6 -24 -12 -10 -10 17 -17 103 -26 25 -2
56 -6 70 -9 14 -2 49 -8 78 -12 28 -4 52 -10 52 -13 0 -4 17 -8 37 -9 20 -2
42 -7 48 -11 5 -5 25 -7 43 -6 17 2 34 -1 37 -5 5 -9 92 -26 108 -22 4 1 7 -1
7 -5 0 -5 19 -9 43 -10 23 -1 62 -5 87 -8 25 -3 70 -7 100 -10 30 -3 70 -7 88
-9 18 -2 35 1 38 5 3 5 13 5 22 1 31 -15 212 0 265 22 20 9 37 14 37 12 0 -3
16 2 35 10 26 10 41 12 55 4 22 -12 45 -13 115 -6 28 3 79 8 115 12 36 4 77
13 92 20 15 8 35 14 44 14 21 0 124 58 124 71 0 5 6 9 14 9 16 0 78 -31 87
-43 3 -5 8 -8 10 -7 9 3 55 -19 75 -37 11 -10 56 -36 99 -58 43 -22 83 -45 89
-51 6 -6 42 -27 79 -48 37 -21 73 -44 81 -51 7 -7 44 -33 82 -57 38 -25 94
-65 124 -89 30 -25 75 -59 100 -76 25 -17 54 -39 65 -50 11 -10 43 -35 70 -55
28 -20 61 -46 75 -57 32 -26 128 -98 175 -131 20 -14 44 -32 53 -41 9 -9 34
-26 55 -38 l37 -21 -4 35 c-2 19 -7 39 -11 45 -3 5 -8 19 -10 30 -2 11 -15 41
-28 67 -13 27 -22 53 -20 60 2 6 -4 16 -15 22 -12 6 -19 21 -19 37 -1 14 -4
29 -9 33 -5 3 -19 25 -31 48 l-22 41 52 -12 c48 -11 79 -24 132 -54 11 -6 56
-27 100 -48 44 -20 87 -42 95 -49 35 -31 270 -67 270 -42 0 4 4 6 9 3 5 -3 22
0 38 7 31 13 34 37 5 38 -17 0 -123 48 -109 49 4 0 2 6 -5 14 -7 8 -17 11 -22
8 -5 -3 -7 2 -3 11 3 9 3 16 -1 16 -47 -7 -56 16 -9 25 48 10 242 110 245 127
2 10 -18 26 -52 43 -50 25 -56 32 -70 79 -64 214 -73 257 -75 332 -2 44 -3 93
-4 109 -2 21 3 30 16 32 31 4 129 135 113 151 -6 6 21 35 28 31 2 -2 19 17 37
42 l32 45 1 133 1 133 90 4 c96 4 123 8 152 23 10 6 20 10 23 9 22 -2 110 53
135 85 17 21 35 45 42 52 7 8 10 16 6 19 -3 3 -7 27 -9 54 -3 26 -12 66 -20
88 -9 22 -18 51 -21 65 -2 14 -11 36 -20 49 -8 13 -17 33 -19 45 -9 54 -28
116 -36 116 -5 0 -7 4 -4 8 3 5 -1 34 -8 65 -7 31 -11 59 -8 62 3 2 6 28 8 57
6 122 18 208 32 232 3 5 6 26 7 45 3 52 15 110 32 156 8 22 16 48 17 57 1 10
5 21 9 24 4 4 7 13 7 20 0 7 5 25 12 41 6 15 10 33 9 40 -1 6 3 14 9 18 5 3
10 17 10 31 0 13 4 24 9 24 12 0 47 -49 61 -84 12 -32 22 -33 53 -4 14 13 40
37 58 54 113 103 235 291 283 434 36 108 38 272 4 395 -7 22 -11 43 -10 47 1
5 -2 8 -8 8 -5 0 -10 8 -10 18 0 10 -7 27 -15 38 -8 12 -12 24 -9 26 2 3 1 24
-5 47 -5 23 -5 43 0 46 4 3 4 16 -1 29 -5 13 -7 39 -6 57 2 19 1 38 -2 44 -4
5 -7 26 -9 45 -6 82 -12 128 -22 184 -6 32 -8 63 -5 68 3 5 1 14 -5 21 -5 7
-13 44 -17 82 -3 39 -8 81 -10 95 -5 43 -28 145 -34 150 -3 3 -5 16 -5 30 1
14 -5 38 -12 53 -8 15 -13 36 -12 45 2 9 0 27 -4 38 -10 28 -19 81 -21 117 0
15 -4 27 -8 27 -4 0 -10 21 -14 48 -3 26 -11 53 -17 60 -7 9 -5 18 6 30 9 9
16 19 16 22 0 3 4 18 10 33 6 16 11 32 11 37 0 5 4 10 9 12 8 3 63 116 59 121
-2 1 5 13 15 27 9 13 17 32 17 42 0 10 4 18 9 18 11 0 26 39 23 57 -2 7 4 23
13 37 9 13 15 28 14 32 -1 5 0 14 1 19 1 6 3 15 4 20 3 19 28 100 37 120 5 11
11 34 13 50 2 17 5 30 6 30 1 0 3 11 5 25 4 34 11 67 25 120 14 49 21 168 20
328 0 57 5 112 10 122 6 10 7 21 3 23 -10 6 -9 59 1 75 3 6 2 13 -3 16 -4 3
-9 17 -9 31 0 14 5 28 9 31 5 3 6 11 2 17 -4 7 -9 46 -10 87 -1 83 -8 155 -18
201 -4 17 -8 59 -9 94 -2 35 -7 70 -12 77 -6 7 -9 24 -8 38 1 14 -2 43 -8 65
-6 22 -12 49 -14 60 -7 41 -26 106 -43 150 -5 11 -14 33 -20 48 -6 15 -11 37
-11 48 0 11 -6 22 -14 25 -8 3 -12 12 -10 19 3 7 -1 24 -10 37 -8 13 -15 26
-16 30 -1 9 -27 67 -39 88 -5 8 -19 38 -32 65 -23 50 -83 148 -106 173 -7 7
-13 18 -13 24 0 5 -13 30 -30 55 -16 24 -30 48 -30 53 0 5 -8 15 -18 22 -10 7
-27 27 -38 43 -10 17 -21 32 -25 35 -11 10 -159 209 -159 215 0 3 -13 18 -30
32 -16 13 -30 30 -30 35 0 6 -24 34 -52 62 -29 28 -70 69 -91 91 -20 22 -60
58 -87 80 -27 22 -66 56 -86 77 -19 20 -47 39 -60 42 -14 4 -22 11 -19 16 3 5
-4 14 -17 21 -26 14 -29 17 -88 69 -25 22 -50 40 -56 40 -7 0 -14 6 -17 13 -3
7 -33 30 -67 51 -34 21 -78 53 -97 70 -20 17 -43 38 -53 46 -20 18 -64 44
-107 65 -18 8 -33 20 -33 26 0 5 -4 8 -9 4 -5 -3 -13 0 -16 6 -6 8 -90 67
-164 114 -9 6 -18 12 -21 15 -10 11 -155 91 -160 88 -3 -2 -19 7 -37 20 -17
12 -36 22 -41 22 -5 0 -12 7 -16 15 -3 8 -9 15 -13 14 -23 -4 -53 2 -65 14 -7
6 -26 19 -43 27 -16 8 -34 21 -38 27 -4 7 -16 13 -25 13 -10 0 -33 10 -52 23
-19 13 -54 32 -77 43 -23 10 -43 25 -43 32 0 6 -7 12 -15 12 -8 0 -15 4 -15
10 0 5 -4 9 -8 7 -10 -3 -102 44 -126 66 -11 9 -23 17 -28 17 -4 0 -16 7 -25
15 -10 8 -22 15 -28 16 -5 0 -24 9 -41 20 -18 11 -57 28 -88 39 -57 19 -114
53 -128 76 -4 6 -23 15 -42 18 -19 4 -45 15 -59 26 -13 11 -51 29 -83 41 -32
12 -62 27 -66 33 -4 6 -8 7 -8 2 0 -5 -7 -2 -16 5 -9 7 -23 14 -31 15 -8 1
-31 10 -51 20 -20 10 -41 19 -47 20 -5 1 -28 10 -50 20 -22 10 -46 19 -53 20
-8 1 -30 13 -50 27 -21 13 -48 28 -62 32 -14 4 -32 13 -40 20 -8 8 -19 14 -25
14 -18 0 -105 44 -105 53 0 4 -8 8 -18 8 -10 0 -27 7 -39 15 -18 13 -142 57
-165 59 -3 1 -10 4 -14 9 -4 4 -17 7 -29 7 -12 0 -30 7 -41 15 -10 8 -29 15
-41 15 -12 0 -24 4 -28 9 -3 5 -31 17 -63 26 -31 8 -69 22 -83 30 -14 8 -29
12 -32 9 -3 -3 -17 2 -31 11 -14 9 -31 18 -38 19 -7 2 -43 17 -79 34 -36 17
-79 34 -95 38 -16 4 -38 13 -49 20 -11 7 -24 13 -30 13 -21 1 -125 44 -125 52
0 5 -3 8 -7 7 -15 -5 -153 45 -153 54 0 5 -5 6 -10 3 -6 -4 -17 -1 -25 5 -8 7
-15 9 -15 4 0 -4 -11 3 -25 16 -14 13 -25 21 -25 18 0 -11 -90 21 -120 42 -15
11 -31 20 -35 20 -23 0 -245 112 -273 138 -7 6 -19 12 -26 12 -18 0 -113 49
-126 65 -7 8 -17 15 -23 15 -6 0 -17 6 -26 14 -64 58 -164 152 -224 210 -40
37 -88 76 -107 86 -36 19 -165 138 -222 207 -33 39 -39 43 -58 43 -5 0 -10 5
-10 10 0 6 -16 27 -35 47 -19 20 -35 33 -35 29 0 -12 -80 75 -105 115 -13 20
-70 84 -127 142 -129 133 -208 220 -208 232 0 6 -27 38 -101 119 -26 28 -59
67 -75 86 -16 19 -32 37 -36 38 -5 2 -8 10 -8 17 0 8 -13 30 -30 48 -16 19
-30 39 -30 44 0 6 -9 18 -21 29 l-21 19 3 -50z"/>
<path d="M4816 1502 c-2 -4 -1 -14 4 -22 7 -11 9 -9 7 8 -1 24 -3 26 -11 14z"/>
<path d="M4856 1473 c-6 -14 -5 -15 5 -6 7 7 10 15 7 18 -3 3 -9 -2 -12 -12z"/>
<path d="M4859 1448 c-5 -18 -6 -38 -1 -34 7 8 12 36 6 36 -2 0 -4 -1 -5 -2z"/>
<path d="M4915 1281 c-3 -5 -2 -12 3 -15 5 -3 9 1 9 9 0 17 -3 19 -12 6z"/>
<path d="M4956 1273 c-6 -14 -5 -15 5 -6 7 7 10 15 7 18 -3 3 -9 -2 -12 -12z"/>
<path d="M5014 1240 c0 -13 4 -16 10 -10 7 7 7 13 0 20 -6 6 -10 3 -10 -10z"/>
<path d="M4973 1230 c1 -21 10 -18 13 5 1 8 -2 15 -6 15 -5 0 -8 -9 -7 -20z"/>
<path d="M4970 1179 c0 -5 5 -7 10 -4 6 3 10 8 10 11 0 2 -4 4 -10 4 -5 0 -10
-5 -10 -11z"/>
<path d="M5080 1140 c-9 -6 -10 -10 -3 -10 6 0 15 5 18 10 8 12 4 12 -15 0z"/>
</g>
</svg>
